<?xml version="1.0" standalone="no"?>
<!DOCTYPE svg PUBLIC "-//W3C//DTD SVG 20010904//EN"
 "http://www.w3.org/TR/2001/REC-SVG-20010904/DTD/svg10.dtd">
<svg version="1.0" xmlns="http://www.w3.org/2000/svg"
 width="300.000000pt" height="300.000000pt" viewBox="0 0 300.000000 300.000000"
 preserveAspectRatio="xMidYMid meet">
<metadata>
Created by potrace 1.10, written by Peter Selinger 2001-2011
</metadata>
<g transform="translate(0.000000,300.000000) scale(0.100000,-0.100000)"
fill="#000000" stroke="none">
<path d="M1980 1938 c-29 -31 -26 -74 6 -94 22 -15 52 -17 202 -16 97 1 185
-1 195 -4 15 -5 17 -23 17 -198 0 -180 1 -195 21 -220 25 -32 68 -35 95 -5 18
20 19 39 19 271 l0 250 -24 19 c-21 18 -42 19 -267 19 -237 0 -244 -1 -264
-22z m520 -270 l0 -258 -30 0 -30 0 0 225 0 225 -225 0 -225 0 0 28 c0 16 2
31 4 33 2 2 117 4 255 4 l251 0 0 -257z"/>
<path d="M1341 1700 c-54 -4 -67 -9 -83 -31 -20 -26 -16 -49 14 -91 10 -14 10
-20 1 -29 -10 -10 -20 -8 -48 7 -39 21 -42 26 -20 44 22 18 18 56 -7 80 -18
16 -35 20 -96 20 -40 0 -83 -5 -94 -11 -14 -8 -23 -8 -31 0 -6 6 -37 11 -69
11 -46 0 -61 -4 -78 -22 -11 -12 -20 -30 -20 -40 0 -19 42 -68 58 -68 5 0 7
-26 4 -57 -3 -44 -9 -62 -25 -75 -49 -38 -57 -49 -57 -76 0 -66 86 -87 158
-40 l37 25 18 -23 c16 -22 26 -24 97 -24 69 0 82 3 100 22 23 25 25 55 5 82
-12 16 -12 22 -2 28 27 17 37 8 37 -36 0 -58 29 -96 75 -96 23 0 39 7 52 24
l19 23 28 -23 c31 -28 87 -32 106 -9 12 14 15 14 36 0 50 -32 110 -8 129 53 9
30 20 28 35 -7 24 -60 80 -82 118 -48 17 15 21 15 59 -4 49 -24 74 -17 121 35
27 30 36 35 52 26 29 -16 75 -12 93 8 22 24 21 40 -3 77 -11 17 -20 36 -20 43
0 7 18 40 40 72 22 33 43 67 46 75 11 27 -25 55 -69 55 -32 0 -46 -6 -72 -34
-31 -33 -35 -35 -86 -29 -47 5 -57 2 -74 -17 l-20 -22 28 -50 28 -50 -43 -64
c-24 -35 -47 -62 -53 -60 -5 1 -35 67 -66 146 -91 228 -111 228 -199 3 -28
-73 -56 -135 -61 -139 -5 -3 -16 11 -25 32 -15 35 -15 40 5 79 35 71 24 137
-29 177 -36 26 -76 34 -149 28z m-371 -60 l0 -30 -63 0 -64 0 0 30 0 30 64 0
63 0 0 -30z m210 -3 c0 -32 0 -32 -45 -29 l-45 4 0 -41 0 -41 70 0 70 0 0 -30
0 -30 -70 0 -70 0 0 -41 0 -40 45 7 45 6 0 -36 0 -36 -80 0 -80 0 0 170 0 170
80 0 80 0 0 -33z m275 18 c66 -32 73 -118 13 -166 -20 -15 -19 -16 11 -84 17
-37 31 -69 31 -71 0 -2 -15 -4 -34 -4 -32 0 -35 3 -65 70 -23 52 -36 70 -50
70 -18 0 -19 -5 -14 -70 l6 -70 -37 0 -36 0 0 100 0 100 64 0 c80 0 96 6 96
36 0 33 -32 46 -101 42 l-59 -3 0 33 0 32 71 0 c43 0 84 -6 104 -15z m308
-138 c79 -204 76 -187 35 -187 l-35 0 -29 95 c-16 52 -31 95 -34 95 -3 0 -18
-43 -34 -95 l-29 -95 -37 0 -37 0 47 119 c26 65 55 141 65 170 9 28 20 51 23
51 4 0 33 -69 65 -153z m437 146 c0 -5 -25 -42 -55 -83 -30 -41 -55 -77 -55
-81 0 -3 16 -27 35 -52 19 -25 35 -48 35 -51 0 -3 -19 -4 -41 -3 -33 1 -44 6
-52 24 -6 13 -13 23 -17 23 -4 0 -24 -25 -45 -55 -34 -51 -40 -55 -76 -55 -22
0 -39 2 -39 5 0 2 27 41 61 85 l60 81 -33 42 c-18 23 -36 44 -40 45 -23 10 -2
21 34 18 28 -2 47 -11 59 -27 12 -16 22 -20 26 -13 5 6 22 32 38 57 27 42 34
47 68 47 20 0 37 -3 37 -7z m-1230 -186 c0 -43 -5 -87 -10 -98 -15 -26 -62
-49 -105 -49 -34 0 -35 1 -35 36 0 34 1 35 29 29 46 -10 63 16 61 89 -3 77 -5
71 30 71 l30 0 0 -78z"/>
<path d="M481 1594 c-20 -25 -21 -39 -21 -266 l0 -239 25 -24 24 -25 244 0
c242 0 244 0 265 23 26 27 28 54 6 85 -15 21 -20 22 -204 22 -103 0 -195 3
-204 6 -14 5 -16 32 -16 199 0 179 -1 194 -21 219 -13 17 -30 26 -49 26 -19 0
-36 -9 -49 -26z m79 -229 l0 -225 226 0 225 0 -3 -30 -3 -31 -253 -2 -252 -2
0 258 0 257 30 0 30 0 0 -225z"/>
<path d="M1574 1250 c-33 -13 -47 -36 -35 -59 6 -11 11 -32 11 -48 0 -15 6
-39 13 -53 12 -25 34 -30 122 -29 27 0 31 0 100 -6 67 -7 90 6 97 54 5 36 24
36 34 0 12 -41 38 -58 61 -41 33 23 45 25 65 13 10 -6 23 -9 28 -6 5 3 21 -2
35 -11 23 -15 27 -15 50 0 28 19 30 25 14 60 -9 18 -9 33 0 57 18 51 -5 69
-81 65 -33 -2 -73 0 -88 4 -44 13 -73 -8 -86 -60 -10 -42 -11 -43 -22 -23 -7
12 -12 28 -12 36 0 8 -9 22 -20 32 -22 20 -97 23 -132 4 -12 -6 -24 -7 -31 -1
-16 13 -98 21 -123 12z m66 -45 c0 -11 -11 -15 -40 -15 -29 0 -40 4 -40 15 0
11 11 15 40 15 29 0 40 -4 40 -15z m50 -15 c0 -20 -5 -30 -15 -30 -10 0 -15
10 -15 30 0 20 5 30 15 30 10 0 15 -10 15 -30z m73 -37 c-1 -38 -6 -69 -12
-71 -6 -2 -11 3 -11 12 0 10 -9 16 -25 16 -16 0 -25 -6 -25 -15 0 -8 -7 -15
-15 -15 -10 0 -15 10 -15 30 0 28 2 30 40 30 40 0 40 0 40 40 0 25 5 40 13 40
8 0 12 -19 10 -67z m87 52 c0 -9 -9 -15 -21 -15 -12 0 -19 -5 -16 -12 2 -8 15
-12 30 -10 19 2 27 -1 27 -12 0 -11 -9 -16 -30 -16 -20 0 -30 -5 -30 -15 0 -8
9 -15 20 -15 11 0 20 -7 20 -15 0 -10 -10 -15 -30 -15 l-30 0 0 70 0 70 30 0
c20 0 30 -5 30 -15z m160 0 c0 -9 -9 -15 -21 -15 -12 0 -19 -5 -16 -12 2 -8
15 -12 30 -10 19 2 27 -1 27 -12 0 -11 -9 -16 -30 -16 -27 0 -29 -2 -23 -30 4
-23 2 -30 -11 -30 -13 0 -16 12 -16 70 l0 70 30 0 c20 0 30 -5 30 -15z m70
-12 l1 -28 20 28 c11 15 30 27 42 27 20 0 19 -1 -6 -28 -33 -35 -33 -42 -2
-72 14 -13 25 -27 25 -32 0 -18 -33 -6 -53 18 l-21 27 -18 -23 c-18 -22 -18
-22 -18 44 0 52 3 66 15 66 10 0 15 -10 15 -27z m-463 -65 c-3 -60 -29 -60
-31 0 -1 33 3 42 16 42 13 0 16 -9 15 -42z"/>
</g>
</svg>
